<?xml version="1.0" standalone="no"?>
<!DOCTYPE svg PUBLIC "-//W3C//DTD SVG 20010904//EN"
 "http://www.w3.org/TR/2001/REC-SVG-20010904/DTD/svg10.dtd">
<svg version="1.0" xmlns="http://www.w3.org/2000/svg"
 width="108.000000pt" height="173.000000pt" viewBox="0 0 108.000000 173.000000"
 preserveAspectRatio="xMidYMid meet">
<metadata>
Created by potrace 1.16, written by Peter Selinger 2001-2019
</metadata>
<g transform="translate(0.000000,173.000000) scale(0.100000,-0.100000)"
fill="#fff" stroke="none">
<path d="M365 1490 c-4 -20 -13 -30 -25 -30 -10 0 -54 -18 -99 -41 -153 -76
-188 -170 -170 -457 3 -52 11 -97 17 -101 6 -4 15 -18 21 -31 9 -24 10 -24 12
10 3 53 -2 104 -12 116 -4 5 -13 43 -20 84 -17 112 14 238 75 303 25 27 158
97 184 97 10 0 12 -22 6 -112 -4 -68 -11 -115 -18 -117 -28 -10 -85 -80 -95
-116 -6 -22 -11 -83 -11 -135 0 -112 22 -170 80 -208 l35 -23 5 -111 c4 -74
10 -113 18 -116 7 -2 12 -21 12 -42 0 -121 44 -291 80 -310 34 -18 105 -12
126 11 17 19 19 35 17 137 -4 200 16 232 152 232 99 0 109 8 119 95 20 169 16
156 53 171 58 25 55 55 -15 147 l-37 48 0 117 c-1 133 -11 165 -71 231 -58 65
-120 95 -256 125 -21 5 -28 12 -28 31 0 24 -2 25 -74 25 l-74 0 -7 -30z m135
-171 l0 -130 29 -25 c48 -40 65 -99 59 -207 -3 -57 -11 -104 -21 -123 -22 -43
-71 -82 -111 -90 -34 -6 -34 -7 -40 -67 -12 -117 -20 -162 -24 -142 -2 11 -8
25 -14 32 -5 6 -8 48 -7 93 l2 81 -42 27 c-67 43 -85 91 -79 216 5 118 21 156
80 195 l36 23 7 117 c4 64 9 119 12 124 2 4 29 7 59 7 l54 0 0 -131z m175 82
c82 -38 119 -72 151 -137 25 -51 27 -65 26 -167 l-1 -111 38 -51 c44 -59 65
-95 58 -102 -3 -2 -20 -12 -39 -21 -28 -15 -34 -23 -38 -61 -4 -32 -10 -46
-24 -51 -16 -5 -17 -8 -4 -12 12 -5 14 -18 10 -60 -2 -29 -9 -59 -14 -65 -7
-9 -39 -13 -93 -13 -75 0 -87 -3 -114 -25 -43 -37 -53 -78 -49 -213 3 -137 -3
-152 -62 -152 -29 0 -43 6 -59 25 -36 46 -77 299 -51 315 6 4 16 53 23 113
l10 105 38 11 c46 14 104 77 118 128 16 55 14 217 -3 256 -7 18 -28 45 -45 61
l-31 30 0 119 0 120 47 -7 c26 -3 75 -19 108 -35z"/>
</g>
</svg>
